<svg width="21" height="17" viewBox="0 0 21 17" fill="none" xmlns="http://www.w3.org/2000/svg">
<path d="M6.93414 16.7895C14.2106 16.7895 18.1898 10.664 18.1898 5.35219C18.1898 5.17823 18.1864 5.00507 18.1786 4.83262C18.9529 4.26334 19.6211 3.55847 20.1519 2.75107C19.4431 3.07129 18.6803 3.28681 17.8802 3.38398C18.6969 2.88634 19.3239 2.09906 19.6198 1.16063C18.8432 1.62873 17.9937 1.95871 17.1077 2.13636C16.3859 1.35501 15.3581 0.866333 14.2201 0.866333C12.0355 0.866333 10.2639 2.66652 10.2639 4.88553C10.2639 5.201 10.2987 5.50776 10.3666 5.8021C7.07867 5.63399 4.16322 4.03444 2.21204 1.60222C1.86062 2.21567 1.67577 2.91287 1.67639 3.62263C1.67639 5.01725 2.37476 6.24839 3.43682 6.96867C2.8086 6.94917 2.19417 6.77675 1.64519 6.4659C1.6446 6.48278 1.6446 6.49922 1.6446 6.51725C1.6446 8.46397 3.0082 10.0894 4.81833 10.4577C4.47836 10.5517 4.12755 10.5993 3.77519 10.5991C3.52073 10.5991 3.27273 10.5737 3.03171 10.5267C3.53535 12.1238 4.99574 13.2861 6.72722 13.3186C5.37322 14.3969 3.66762 15.0392 1.81387 15.0392C1.49852 15.0395 1.18343 15.0209 0.870239 14.9835C2.62103 16.1238 4.69993 16.7892 6.93434 16.7892" fill="#03045E"/>
</svg>
